<svg width="56" height="56" viewBox="0 0 56 56" fill="none" xmlns="http://www.w3.org/2000/svg">
<path d="M20.1321 8.99146L19.8698 9.64023C19.109 11.5211 18.6368 13.5104 18.4645 15.5577L18.4064 16.2438L19.0959 16.2999C20.4394 16.4065 21.7492 16.6271 22.9859 16.9506L23.4918 17.0833L23.756 16.6327C24.4025 15.5278 25.1726 14.449 26.0439 13.4281L26.4918 12.9028L25.9634 12.4578C24.3912 11.1322 22.6449 10.0572 20.7767 9.26629L20.1321 8.99146ZM24.5486 13.0767C23.9191 13.86 23.3438 14.6715 22.8341 15.496C21.8879 15.2716 20.906 15.1034 19.9054 14.9949C20.0759 13.5628 20.4076 12.1624 20.8929 10.82C22.1839 11.4276 23.4113 12.1848 24.5486 13.0767Z" fill="#045140"/>
<mask id="mask0_8_40" style="mask-type:luminance" maskUnits="userSpaceOnUse" x="21" y="44" width="14" height="12">
<path d="M21.0446 44.1987H34.9556V56H21.0446V44.1987Z" fill="white"/>
</mask>
<g mask="url(#mask0_8_40)">
<path d="M27.9999 55.8747L28.3766 55.6297C29.5458 54.8688 30.6476 53.9751 31.6519 52.9748C32.6938 51.9353 33.6363 50.7574 34.4514 49.473L34.8805 48.7999L34.1478 48.4764C32.0717 47.5659 30.1548 46.3581 28.4496 44.8867L27.9999 44.4978L27.5502 44.8867C25.8413 46.3618 23.9244 47.5696 21.852 48.4783L21.1194 48.7999L21.5466 49.473C22.3636 50.7574 23.3042 51.9353 24.3442 52.9748C25.3448 53.9713 26.4466 54.8632 27.6252 55.6279L27.9999 55.8747ZM23.1449 49.3963C24.8819 48.5624 26.5121 47.5248 27.9999 46.3039C29.484 47.5229 31.1123 48.5587 32.853 49.3944C32.1991 50.3386 31.4683 51.2136 30.6776 52.0045C29.8494 52.829 28.9499 53.575 27.9999 54.2275C27.0424 53.5731 26.1411 52.8252 25.3167 52.0045C24.5278 51.2155 23.7989 50.3405 23.1449 49.3963Z" fill="#045140"/>
</g>
<path d="M35.8625 46.8891L36.1248 46.2403C36.8856 44.3594 37.3577 42.3682 37.5301 40.3247L37.5882 39.6385L36.8987 39.5825C36.2016 39.5264 35.6357 39.4609 35.083 39.3712C34.7738 39.3207 34.4759 39.2646 34.1854 39.2048C33.8912 39.145 33.6214 39.0833 33.3591 39.0197L32.5046 38.7991L32.2423 39.2478C31.5977 40.349 30.8257 41.4278 29.9525 42.4524L29.5047 42.9778L30.0331 43.4209C31.6015 44.7446 33.346 45.8178 35.216 46.6142L35.8625 46.8891ZM31.4497 42.802C32.0793 42.0186 32.6545 41.2091 33.1642 40.3845C33.4003 40.4425 33.6476 40.4967 33.925 40.5528C34.2173 40.6126 34.5302 40.6706 34.8956 40.7323C35.2703 40.794 35.6563 40.8426 36.0892 40.8875C35.9187 42.3159 35.587 43.7144 35.1036 45.0587C33.8088 44.4492 32.5815 43.692 31.4497 42.802Z" fill="#045140"/>
<mask id="mask1_8_40" style="mask-type:luminance" maskUnits="userSpaceOnUse" x="0" y="20" width="12" height="16">
<path d="M0 20.7458H11.4507V35.1048H0V20.7458Z" fill="white"/>
</mask>
<g mask="url(#mask1_8_40)">
<path d="M7.10353 34.8151L7.42394 34.0804C7.95797 32.8595 8.57445 31.7208 9.25276 30.7L9.63501 30.141C9.67436 30.0849 9.71746 30.0288 9.76243 29.969L10.0716 29.5464C10.1915 29.3875 10.304 29.2454 10.4201 29.0996C10.5101 28.9837 10.6262 28.8434 10.8118 28.621L11.4039 27.9441L11.0104 27.4917C10.66 27.0878 10.3283 26.6746 9.99291 26.2278C9.76805 25.9343 9.5357 25.6033 9.25838 25.1901C8.57632 24.1618 7.95797 23.0232 7.42394 21.8042L7.10353 21.0713L6.42709 21.4976C5.1323 22.3109 3.94994 23.2532 2.90624 24.2946C1.90564 25.293 1.00997 26.3942 0.245466 27.5665L0 27.9423L0.245466 28.3162C1.01372 29.4922 1.90752 30.5934 2.90812 31.59C3.94994 32.6314 5.13418 33.5718 6.42522 34.387L7.10353 34.8151ZM1.65081 27.9423C2.30663 26.9869 3.05615 26.0876 3.88061 25.2649C4.66948 24.4778 5.55016 23.7486 6.50204 23.0943C6.98548 24.1076 7.52513 25.0667 8.1135 25.9511C8.41143 26.3961 8.66252 26.7513 8.92485 27.0953C9.13659 27.3776 9.35957 27.66 9.59004 27.9404C9.49261 28.0582 9.40829 28.1629 9.3427 28.2489C9.20404 28.419 9.05976 28.6023 8.90236 28.8154L8.66252 29.1426C8.60068 29.2249 8.54072 29.3071 8.46952 29.4081L8.10975 29.9353C7.52138 30.8197 6.98173 31.7769 6.50017 32.7903C5.54828 32.134 4.66948 31.4049 3.88061 30.6178C3.05615 29.797 2.30851 28.8977 1.65081 27.9423Z" fill="#045140"/>
</g>
<path d="M20.1321 46.8911L20.7786 46.6163C22.6449 45.8235 24.3894 44.7485 25.9634 43.4229L26.4918 42.9779L26.0439 42.4544C25.1707 41.428 24.4006 40.3492 23.756 39.248L23.4918 38.7974L22.9859 38.9301C21.7473 39.2536 20.4376 39.4742 19.0941 39.5826L18.4064 39.6368L18.4645 40.3249C18.6368 42.3721 19.1109 44.3652 19.8698 46.2442L20.1321 46.8911ZM22.8341 40.3828C23.3419 41.2073 23.9172 42.0188 24.5486 42.8022C23.4113 43.6959 22.1839 44.4549 20.8929 45.0607C20.4076 43.7164 20.0759 42.3161 19.9054 40.8839C20.906 40.7755 21.8879 40.6072 22.8341 40.3828Z" fill="#045140"/>
<path d="M8.19617 47.693L8.63651 47.7846C9.98376 48.0688 11.3816 48.2128 12.7963 48.2128C14.3122 48.2128 15.8281 48.0464 17.3009 47.7192L18.086 47.5434L17.7937 46.7993C16.9711 44.6941 16.4708 42.486 16.3059 40.2387L16.2628 39.646L15.6688 39.603C13.4128 39.4385 11.198 38.9393 9.08997 38.1204L8.3442 37.8306L8.16994 38.6102C7.83828 40.0723 7.67151 41.5699 7.67151 43.0656C7.67151 44.4753 7.81766 45.885 8.10623 47.2518L8.19617 47.693ZM9.35417 39.6834C11.1755 40.3191 13.0643 40.736 14.983 40.923C15.1704 42.8356 15.5883 44.7184 16.2254 46.5338C13.9524 46.9433 11.5971 46.9414 9.36541 46.5282C9.15368 45.3915 9.04687 44.2285 9.04687 43.0656C9.04687 41.9363 9.1518 40.8014 9.35417 39.6834Z" fill="#045140"/>
<path d="M9.00739 35.791L9.65759 36.0527C11.5407 36.8081 13.5363 37.2792 15.5863 37.4531L16.2758 37.5092L16.3301 36.823C16.4388 35.4843 16.6581 34.1774 16.9822 32.9416L17.1153 32.4368L16.6656 32.1732C15.5619 31.5319 14.4807 30.7635 13.4333 29.8735L12.903 29.479L12.3502 30.124C12.2547 30.2362 12.1722 30.3372 12.0729 30.4662C12.0148 30.5372 11.9567 30.6101 11.9043 30.6831L11.7225 30.9168C11.6251 31.0458 11.5333 31.171 11.3965 31.3636L11.0067 31.9189L11.0105 31.9226C10.3415 32.9285 9.76065 34.0148 9.28096 35.1478L9.00739 35.791ZM12.161 32.6724L12.8992 31.6403C12.9405 31.5898 12.9817 31.5394 13.021 31.4833C13.0473 31.4478 13.0735 31.4141 13.0997 31.3823C13.8849 32.0124 14.6981 32.5864 15.5244 33.093C15.3014 34.0354 15.1328 35.0151 15.0222 36.0135C13.5869 35.8414 12.1835 35.5124 10.8381 35.03C11.2259 34.2055 11.67 33.4128 12.161 32.6724Z" fill="#045140"/>
<path d="M17.1153 23.4399L16.9823 22.937C16.6581 21.7011 16.4389 20.398 16.3302 19.0574L16.274 18.3694L15.5863 18.4273C13.5289 18.6012 11.5352 19.0724 9.65767 19.8296L9.00934 20.0913L9.28104 20.7345C9.7626 21.8694 10.3528 22.9687 11.0499 24.0176C11.2579 24.3261 11.4809 24.6439 11.7207 24.9637C11.7563 25.0104 11.7938 25.0571 11.8406 25.1132L11.8931 25.1787C12.0805 25.4199 12.2791 25.6648 12.4852 25.9078L12.9312 26.4351L13.4577 25.9864C14.4808 25.117 15.5601 24.3485 16.6656 23.7016L17.1153 23.4399ZM13.1054 24.4962C13.0642 24.4439 13.023 24.3915 12.9836 24.3392L12.8225 24.141C12.5995 23.8419 12.3878 23.5446 12.1854 23.2417C11.6814 22.4826 11.2298 21.6805 10.84 20.8504C12.1817 20.3699 13.5851 20.039 15.0242 19.867C15.1329 20.8654 15.3015 21.8451 15.5264 22.7836C14.6982 23.2941 13.8868 23.868 13.1054 24.4962Z" fill="#045140"/>
<path d="M7.67151 12.8184C7.67151 14.3122 7.83828 15.8117 8.16994 17.2719L8.34607 18.0534L9.08997 17.7618C11.2017 16.9372 13.4147 16.438 15.6688 16.2735L16.2628 16.2305L16.3059 15.6378C16.4689 13.3942 16.9711 11.188 17.7937 9.08094L18.0841 8.33682L17.3028 8.16107C14.4509 7.52165 11.4547 7.49921 8.64026 8.09376L8.19992 8.18537L8.1081 8.62287C7.81766 9.99146 7.67151 11.4031 7.67151 12.8184ZM9.36729 9.35017C11.6008 8.93698 13.9581 8.93698 16.2272 9.34643C15.5883 11.1619 15.1704 13.0446 14.983 14.9535C13.0661 15.1405 11.1755 15.5593 9.35417 16.1987C9.1518 15.0807 9.04874 13.9458 9.04874 12.8184C9.04687 11.6517 9.15555 10.4869 9.36729 9.35017Z" fill="#045140"/>
<path d="M36.5443 31.6927L36.5724 31.5936C36.5912 31.5338 36.6136 31.4777 36.6455 31.416C36.6624 31.3804 36.6811 31.3431 36.7036 31.3075L36.7729 31.2234C36.7973 31.1916 36.8254 31.1617 36.8685 31.1224L36.9284 31.0663C36.9622 31.0383 37.0053 31.014 37.0521 30.9878L37.1121 30.9448C38.4668 30.2699 39.7485 29.4379 40.9234 28.4713L41.5642 27.9403L40.9234 27.4112C39.7541 26.4483 38.4799 25.6182 37.1589 24.96L37.0765 24.9096C37.0221 24.8797 36.9678 24.846 36.9228 24.8086L36.8647 24.7544C36.8254 24.7189 36.7917 24.6815 36.7598 24.6422C36.7486 24.6272 36.7354 24.6123 36.7223 24.5992L36.7092 24.5786C36.6773 24.53 36.6474 24.4777 36.6211 24.4178C36.6043 24.3861 36.593 24.3505 36.5837 24.3206C36.5668 24.2701 36.5537 24.2271 36.5443 24.1823C36.5349 24.1467 36.5331 24.1131 36.5293 24.0776C36.5256 24.0439 36.5256 24.0084 36.5256 23.9542C36.5256 23.9224 36.5256 23.8906 36.5312 23.8476L36.5499 23.7635C36.5593 23.7261 36.5649 23.6868 36.5687 23.6475C36.6474 23.4101 36.7186 23.1727 36.8141 22.8679C37.1121 21.8321 37.3276 20.7608 37.4568 19.6857C37.4718 19.5698 37.4812 19.4576 37.4981 19.2838L37.5843 18.3676L36.7542 18.448C35.242 18.5939 33.7467 18.908 32.3096 19.3866C31.8074 19.553 31.2527 19.323 31.0148 18.8519C30.3365 17.502 29.5007 16.2194 28.5282 15.0453L27.998 14.4021L27.4677 15.0453C26.5008 16.2119 25.6651 17.4945 24.983 18.8519C24.7451 19.3249 24.1886 19.5549 23.6883 19.3866C22.2473 18.9098 20.7483 18.592 19.2324 18.448L18.4004 18.3676L18.481 19.1959C18.6272 20.7084 18.9438 22.2023 19.4216 23.6363C19.5884 24.1374 19.3598 24.6927 18.8876 24.9283C17.5272 25.6107 16.2437 26.4464 15.0707 27.413L14.4299 27.944L15.0726 28.4731C16.2456 29.4379 17.5291 30.2717 18.8857 30.9486C19.3579 31.1841 19.5884 31.7394 19.4216 32.2405C18.9438 33.6783 18.6272 35.1721 18.481 36.6865L18.4004 37.5148L19.2324 37.4363C20.7483 37.2904 22.2473 36.9745 23.6901 36.4958C24.1754 36.3332 24.7488 36.565 24.983 37.0305C25.6651 38.3898 26.5008 39.6705 27.4677 40.8372L27.9961 41.4803L28.5282 40.8372C29.5007 39.663 30.3365 38.3823 31.0148 37.0305C31.2527 36.5557 31.813 36.3276 32.3133 36.4977C32.823 36.6697 33.3326 36.8155 33.8704 36.9483C34.3557 37.0679 34.8766 37.1745 35.4669 37.2736C35.8829 37.3409 36.3176 37.3951 36.756 37.4363L37.5824 37.5167L37.4943 36.5594C37.4831 36.436 37.4718 36.3107 37.4568 36.1948C37.3257 35.1198 37.1102 34.0503 36.7935 32.9491C36.7204 32.7116 36.6455 32.4723 36.5687 32.2237L36.5499 32.119L36.5293 32.0367C36.5256 31.9918 36.5256 31.9507 36.5256 31.9077C36.5256 31.8778 36.5256 31.8479 36.5293 31.8086C36.5331 31.7675 36.5368 31.7301 36.5443 31.6927ZM36.4993 29.7165C36.4487 29.7408 36.4 29.7707 36.3438 29.8099C36.2539 29.8623 36.1583 29.924 36.0796 29.9876C36.0159 30.0362 35.9578 30.0904 35.8979 30.1502C35.8304 30.2138 35.7667 30.283 35.7217 30.3372C35.6786 30.3802 35.6393 30.4232 35.6055 30.4699C35.5756 30.5111 35.5512 30.5541 35.555 30.5541C35.555 30.5541 35.5568 30.5541 35.5568 30.5522C35.5025 30.6345 35.4594 30.7167 35.4163 30.8009C35.3507 30.928 35.2982 31.0589 35.2439 31.2384C35.227 31.2982 35.2083 31.3561 35.1971 31.416C35.1764 31.5207 35.1652 31.6198 35.1596 31.6927C35.1521 31.7637 35.1502 31.8348 35.1502 31.9077C35.1502 31.9956 35.1521 32.0928 35.1633 32.1881C35.1708 32.2536 35.1839 32.3171 35.2008 32.3807L35.2139 32.4592C35.2252 32.5172 35.2364 32.5864 35.2626 32.6612C35.3376 32.8911 35.4088 33.1211 35.495 33.3997C35.7348 34.2354 35.9166 35.0973 36.0403 35.9686C35.9241 35.9536 35.806 35.9349 35.6936 35.9162C35.1427 35.8246 34.6555 35.7237 34.2021 35.6133C33.7036 35.4918 33.2315 35.3553 32.7574 35.1964C31.6088 34.8057 30.3327 35.3292 29.7874 36.4136C29.2815 37.4194 28.6819 38.3842 27.9998 39.291C27.3215 38.3879 26.7219 37.4213 26.2141 36.4154C25.7981 35.5834 24.9606 35.0674 24.0293 35.0674C23.767 35.0674 23.5065 35.1085 23.2554 35.1908C22.1874 35.5479 21.0781 35.8059 19.9557 35.9667C20.1149 34.8449 20.3754 33.7381 20.7314 32.6724C21.1137 31.5281 20.5853 30.2587 19.5041 29.7183C18.496 29.2154 17.5291 28.619 16.6241 27.9403C17.531 27.2616 18.4997 26.6614 19.5078 26.1548C20.5871 25.6144 21.1137 24.3449 20.7314 23.2026C20.3754 22.1387 20.1149 21.0356 19.9557 19.9157C21.0799 20.0746 22.1874 20.3345 23.2554 20.6898C24.3984 21.0674 25.6745 20.5439 26.216 19.4651C26.7238 18.4574 27.3215 17.4926 27.9998 16.5915C28.6838 17.4964 29.2834 18.463 29.7874 19.467C30.329 20.5458 31.6013 21.0712 32.748 20.6879C33.8161 20.3326 34.9235 20.0728 36.0421 19.9138C35.9203 20.7814 35.7348 21.6489 35.4819 22.5295C35.4088 22.7595 35.3376 22.9894 35.2645 23.2194C35.242 23.2904 35.227 23.3615 35.2027 23.498C35.1877 23.5653 35.1727 23.6307 35.1671 23.6887C35.154 23.7859 35.1521 23.8756 35.1521 23.9579C35.1521 24.0402 35.1558 24.1187 35.1633 24.2103C35.1727 24.2944 35.1821 24.3786 35.1971 24.4515C35.2177 24.5581 35.2495 24.6609 35.2814 24.7581C35.3095 24.8366 35.3376 24.9152 35.3713 24.99C35.4257 25.1115 35.4894 25.2255 35.5437 25.3022L35.6093 25.4088C35.643 25.4555 35.6805 25.4966 35.6899 25.5022C35.7611 25.5883 35.8379 25.6724 35.9372 25.7659C35.9766 25.8051 36.0178 25.8407 36.0609 25.8762C36.1677 25.9622 36.2857 26.0407 36.3888 26.0949L36.4993 26.1622C37.5037 26.6633 38.4706 27.2597 39.3756 27.9403C38.4687 28.619 37.5037 29.2154 36.4993 29.7165Z" fill="#045140"/>
<path d="M35.8659 8.99292L35.2195 9.26402C33.3513 10.0549 31.6068 11.1299 30.0347 12.4574L29.5063 12.9005L29.9522 13.4259C30.8254 14.4486 31.5956 15.5274 32.2439 16.6323L32.5081 17.0829L33.0121 16.9502C34.2488 16.6249 35.5567 16.4061 36.9003 16.2977L37.5879 16.2416L37.5298 15.5554C37.3593 13.5119 36.8871 11.5226 36.1283 9.63982L35.8659 8.99292ZM33.1658 15.4956C32.6561 14.6711 32.079 13.8596 31.4494 13.0762C32.583 12.1844 33.8104 11.4272 35.1052 10.8196C35.5886 12.1639 35.9184 13.5642 36.0889 14.9945C35.0902 15.103 34.1083 15.2712 33.1658 15.4956Z" fill="#045140"/>
<mask id="mask2_8_40" style="mask-type:luminance" maskUnits="userSpaceOnUse" x="21" y="0" width="14" height="12">
<path d="M21.0445 0H34.9555V11.6517H21.0445V0Z" fill="white"/>
</mask>
<g mask="url(#mask2_8_40)">
<path d="M27.9997 0L27.6231 0.246795C26.4407 1.01709 25.3389 1.91266 24.3458 2.90731C23.304 3.94684 22.3633 5.12473 21.5482 6.40918L21.1191 7.08413L21.8518 7.40571C23.9242 8.31249 25.8392 9.51842 27.5481 10.9936L27.9978 11.3825L28.4494 10.9936C30.1564 9.52029 32.0733 8.31249 34.1476 7.40571L34.8802 7.08413L34.453 6.40918C33.636 5.12099 32.6954 3.94123 31.6554 2.90545C30.6605 1.91266 29.5568 1.01896 28.3744 0.246795L27.9997 0ZM32.8547 6.48584C31.1139 7.31783 29.4837 8.35362 27.9997 9.57451C26.51 8.35362 24.8817 7.31783 23.1466 6.48771C23.8024 5.53979 24.5332 4.66292 25.322 3.87767C26.1409 3.05689 27.0422 2.30716 27.9997 1.64904C28.9609 2.30716 29.8604 3.05689 30.683 3.8758C31.4699 4.66105 32.1988 5.53792 32.8547 6.48584Z" fill="#045140"/>
</g>
<path d="M43.2019 48.2128C44.6091 48.2128 46.0088 48.0688 47.3598 47.7865L47.8002 47.6967L47.892 47.2555C48.1787 45.8963 48.323 44.4847 48.323 43.0656C48.323 41.5755 48.1562 40.0779 47.8283 38.6121L47.6503 37.8306L46.9064 38.1222C46.4885 38.2849 46.1156 38.4195 45.7671 38.5354L45.6416 38.5747C45.4935 38.6233 45.3436 38.67 45.1994 38.713L45.1132 38.7373C43.6797 39.1636 42.1807 39.4459 40.5898 39.5862L39.7298 39.6441L39.6867 40.2406C39.5237 42.4879 39.0234 44.6941 38.2008 46.7993L37.9084 47.5453L38.6917 47.7192C40.1626 48.0464 41.6804 48.2128 43.2019 48.2128ZM41.0077 40.9492L41.4124 40.923V40.8837C42.8065 40.7248 44.1763 40.4481 45.4842 40.0592L45.591 40.0293C45.7465 39.9825 45.9058 39.9321 46.0632 39.8816L46.644 39.6946C46.8464 40.8108 46.9476 41.9419 46.9476 43.0656C46.9476 44.236 46.8427 45.3989 46.6347 46.5301C44.3955 46.9395 42.0364 46.9395 39.7691 46.5338C40.4043 44.7259 40.8203 42.8506 41.0077 40.9492Z" fill="#045140"/>
<path d="M42.5426 29.8903C41.5176 30.7616 40.4365 31.53 39.3328 32.175L38.8812 32.4368L39.0143 32.9397C39.2654 33.9082 39.4565 34.9066 39.5839 35.9461C39.6176 36.2172 39.6457 36.4939 39.6663 36.765L39.7169 37.5035L40.4777 37.4512C41.8456 37.3315 43.2078 37.0754 44.5195 36.6865C44.7143 36.6285 44.8998 36.5706 45.0835 36.5107C45.5051 36.3724 45.9285 36.2172 46.3426 36.0527L46.9929 35.7909L46.7174 35.1478C45.9229 33.2818 44.8455 31.5393 43.5151 29.9707L43.0691 29.4453L42.5426 29.8903ZM45.1584 35.0337C44.9916 35.0935 44.823 35.1515 44.6562 35.2057C44.4876 35.2599 44.3152 35.3142 44.1203 35.3721C43.0991 35.6731 42.0442 35.8919 40.978 36.019C40.9686 35.9386 40.9593 35.8582 40.9499 35.7778L40.9461 35.7517C40.8375 34.8598 40.6782 33.968 40.4702 33.0949C41.2965 32.5882 42.1098 32.0142 42.893 31.3841C43.7887 32.519 44.5476 33.7437 45.1584 35.0337Z" fill="#045140"/>
<path d="M46.9907 20.093L46.3405 19.8313C44.4611 19.0722 42.4674 18.6011 40.4156 18.4272L39.7279 18.3711L39.6736 19.0554C39.6473 19.362 39.6173 19.663 39.5817 19.9528C39.4599 20.955 39.2707 21.959 39.014 22.9405L38.8828 23.4435L39.3325 23.7052C40.4362 24.3503 41.5174 25.1187 42.5423 25.9918L43.0689 26.4387L43.5148 25.9114C44.8452 24.339 45.9226 22.5984 46.7152 20.7362L46.9907 20.093ZM42.8946 24.4961C42.1113 23.8679 41.2981 23.292 40.4699 22.7835C40.6798 21.901 40.8409 21.0054 40.9477 20.1155C40.9571 20.0332 40.9683 19.951 40.9777 19.8649C42.413 20.037 43.8146 20.3679 45.1563 20.8484C44.5473 22.1384 43.7884 23.3631 42.8946 24.4961Z" fill="#045140"/>
<path d="M47.8281 17.27C48.156 15.8042 48.3228 14.3047 48.3228 12.8183C48.3228 11.3955 48.1767 9.98391 47.8881 8.62094L47.7944 8.18344L47.3559 8.09182C44.5378 7.50101 41.5434 7.52532 38.6934 8.16287L37.912 8.33862L38.2025 9.08274C39.0251 11.188 39.5235 13.3942 39.6865 15.6415L39.7296 16.2342L40.3236 16.2772C42.5853 16.4417 44.8001 16.9409 46.9062 17.7617L47.652 18.0515L47.8281 17.27ZM46.6402 16.1987C44.8245 15.5592 42.9338 15.1442 41.0113 14.9553C40.8239 13.0427 40.4079 11.1599 39.769 9.34636C42.0381 8.93691 44.3954 8.93878 46.6289 9.34823C46.8406 10.4775 46.9475 11.6442 46.9475 12.8183C46.9475 13.9438 46.8444 15.0787 46.6402 16.1987Z" fill="#045140"/>
<path d="M48.9021 34.8092L49.5804 34.3792C50.864 33.5659 52.0445 32.6273 53.0882 31.5897C54.0794 30.6062 54.9751 29.505 55.7527 28.3159L56 27.9401L55.7527 27.5643C54.9788 26.3827 54.0831 25.2833 53.09 24.2961C52.0501 23.2585 50.8696 22.318 49.5786 21.5029L48.9021 21.0747L48.5817 21.8076C47.671 23.8736 46.4587 25.7862 44.9822 27.4914L44.5924 27.9401L44.9822 28.3907C46.4606 30.0939 47.671 32.0066 48.5817 34.0744L48.9021 34.8092ZM49.4999 23.0995C50.448 23.7521 51.3268 24.4812 52.1175 25.2702C52.9364 26.0835 53.6859 26.9828 54.3492 27.9401C53.684 28.9048 52.9345 29.8041 52.1157 30.6174C51.3268 31.4027 50.448 32.1319 49.5017 32.7844C48.666 31.0493 47.6261 29.4227 46.4025 27.9401C47.6261 26.4574 48.666 24.8308 49.4999 23.0995Z" fill="#045140"/>
</svg>
